<?xml version="1.0" encoding="UTF-8"?>
<!DOCTYPE svg PUBLIC "-//W3C//DTD SVG 1.1//EN" "http://www.w3.org/Graphics/SVG/1.1/DTD/svg11.dtd">
<svg xmlns="http://www.w3.org/2000/svg" version="1.1" width="500px" height="500px" style="shape-rendering:geometricPrecision; text-rendering:geometricPrecision; image-rendering:optimizeQuality; fill-rule:evenodd; clip-rule:evenodd" xmlns:xlink="http://www.w3.org/1999/xlink">
<g><path style="opacity:1" fill="#3756e9" d="M 427.5,110.5 C 426.824,114.187 425.324,117.52 423,120.5C 381.736,66.8677 327.069,39.5344 259,38.5C 180.998,41.3116 122.665,76.3116 84,143.5C 52.0852,208.141 52.7519,272.474 86,336.5C 118.196,390.659 165.363,423.825 227.5,436C 306.587,445.983 371.087,420.15 421,358.5C 459.767,302.565 469.934,241.732 451.5,176C 452.866,171.437 454.866,167.271 457.5,163.5C 482.558,235.256 473.392,302.256 430,364.5C 380.322,426.906 315.489,454.739 235.5,448C 151.66,434.812 93.8271,388.979 62,310.5C 36.4729,230.622 50.8063,158.955 105,95.5C 156.393,42.4773 218.893,20.644 292.5,30C 348.513,38.9822 393.513,65.8155 427.5,110.5 Z"/></g>
<g><path style="opacity:1" fill="#2c7d0c" d="M 427.5,110.5 C 436.394,91.7125 445.56,73.0458 455,54.5C 467.5,60 480,65.5 492.5,71C 494.455,71.9533 496.122,73.2866 497.5,75C 483.752,104.328 470.419,133.828 457.5,163.5C 454.866,167.271 452.866,171.437 451.5,176C 469.934,241.732 459.767,302.565 421,358.5C 371.087,420.15 306.587,445.983 227.5,436C 165.363,423.825 118.196,390.659 86,336.5C 52.7519,272.474 52.0852,208.141 84,143.5C 122.665,76.3116 180.998,41.3116 259,38.5C 327.069,39.5344 381.736,66.8677 423,120.5C 425.324,117.52 426.824,114.187 427.5,110.5 Z"/></g>
<g><path style="opacity:1" fill="#3354e8" d="M 176.5,134.5 C 176.167,134.5 175.833,134.5 175.5,134.5C 177.504,128.822 179.504,123.155 181.5,117.5C 173.137,119.569 165.137,122.736 157.5,127C 156.313,128.019 155.313,129.186 154.5,130.5C 155.815,132.316 157.315,133.983 159,135.5C 159.384,137.197 159.218,138.863 158.5,140.5C 155.908,142.036 154.908,144.369 155.5,147.5C 153.952,150.967 152.118,154.301 150,157.5C 146.945,155.609 143.778,153.943 140.5,152.5C 137.175,153.825 134.841,156.159 133.5,159.5C 131.688,151.248 129.688,142.915 127.5,134.5C 123.532,133.9 119.865,132.567 116.5,130.5C 114.068,130.886 111.734,131.553 109.5,132.5C 125.131,106.033 147.298,87.3663 176,76.5C 176.5,76.6667 177,76.8333 177.5,77C 172.584,79.7072 167.751,82.5406 163,85.5C 162.493,86.9961 162.993,88.1627 164.5,89C 179.138,88.1072 193.805,87.1072 208.5,86C 220.63,77.7632 232.963,69.7632 245.5,62C 247.871,59.294 250.537,56.9606 253.5,55C 272.122,53.5878 290.456,55.2545 308.5,60C 311.102,60.8834 313.269,62.3834 315,64.5C 316.598,68.4612 318.098,72.4612 319.5,76.5C 317.746,79.5525 315.079,81.3858 311.5,82C 305.806,82.3844 300.14,82.3844 294.5,82C 291.886,86.6614 289.553,91.4948 287.5,96.5C 284.557,97.2435 281.557,97.7435 278.5,98C 277.475,100.071 276.642,102.238 276,104.5C 273.075,105.792 270.908,104.958 269.5,102C 272.167,98 274.833,94 277.5,90C 276.591,87.6807 274.925,87.0141 272.5,88C 267.386,93.1085 263.052,98.7751 259.5,105C 259.82,106.653 260.82,107.653 262.5,108C 264.473,108.495 266.473,108.662 268.5,108.5C 268.72,112.319 266.887,113.986 263,113.5C 259.731,113.077 256.564,112.244 253.5,111C 246.828,107.221 239.828,104.221 232.5,102C 228.5,101.333 224.5,101.333 220.5,102C 213.235,108.469 204.901,113.135 195.5,116C 189.298,122.369 182.965,128.536 176.5,134.5 Z"/></g>
<g><path style="opacity:1" fill="#5673f9" d="M 424.5,149.5 C 423.213,145.687 422.213,141.687 421.5,137.5C 432.951,112.59 444.451,87.5905 456,62.5C 456.414,62.0426 456.914,61.7093 457.5,61.5C 459.51,62.5019 461.51,63.5019 463.5,64.5C 450.195,92.7706 437.195,121.104 424.5,149.5 Z"/></g>
<g><path style="opacity:1" fill="#3db5fb" d="M 432.5,171.5 C 431.167,171.5 429.833,171.5 428.5,171.5C 427.725,167.186 427.059,162.853 426.5,158.5C 440.138,128.552 453.805,98.5522 467.5,68.5C 471.581,67.8489 475.248,69.0155 478.5,72C 463.024,105.118 447.691,138.284 432.5,171.5 Z"/></g>
<g><path style="opacity:1" fill="#5673fa" d="M 433.5,202.5 C 432.51,196.69 432.177,190.69 432.5,184.5C 433.11,183.609 433.443,182.609 433.5,181.5C 436.509,180.727 439.176,179.394 441.5,177.5C 439.955,176.548 438.288,176.215 436.5,176.5C 451.788,141.923 467.622,107.589 484,73.5C 486.185,74.6695 488.351,75.8362 490.5,77C 471.34,118.815 452.34,160.649 433.5,202.5 Z"/></g>
<g><path style="opacity:1" fill="#2c7a1a" d="M 183.5,90.5 C 187.843,90.3474 190.01,92.3474 190,96.5C 186.544,98.9298 182.71,100.263 178.5,100.5C 178.61,96.2798 180.277,92.9464 183.5,90.5 Z"/></g>
<g><path style="opacity:1" fill="#3456e1" d="M 411.5,130.5 C 408.031,130.547 404.698,131.213 401.5,132.5C 399.653,125.806 396.486,119.806 392,114.5C 382.833,106 373.667,97.5 364.5,89C 370.462,91.1512 376.129,94.1512 381.5,98C 393.215,107.275 403.215,118.108 411.5,130.5 Z"/></g>
<g><path style="opacity:1" fill="#2d7c12" d="M 175.5,134.5 C 174.778,134.918 174.278,135.584 174,136.5C 170.729,134.343 167.229,134.01 163.5,135.5C 163.463,138.702 161.797,140.368 158.5,140.5C 159.218,138.863 159.384,137.197 159,135.5C 157.315,133.983 155.815,132.316 154.5,130.5C 155.313,129.186 156.313,128.019 157.5,127C 165.137,122.736 173.137,119.569 181.5,117.5C 179.504,123.155 177.504,128.822 175.5,134.5 Z"/></g>
<g><path style="opacity:1" fill="#3355e1" d="M 210.5,133.5 C 207.272,134.414 203.939,134.747 200.5,134.5C 204.495,130.51 208.829,126.844 213.5,123.5C 213.833,123.833 214.167,124.167 214.5,124.5C 212.88,127.404 211.547,130.404 210.5,133.5 Z"/></g>
<g><path style="opacity:1" fill="#f9fbfb" d="M 133.5,159.5 C 134.167,163.5 134.833,167.5 135.5,171.5C 137.857,171.337 140.19,171.503 142.5,172C 140.744,172.202 139.078,172.702 137.5,173.5C 139.966,175.968 142.966,176.968 146.5,176.5C 148.028,176.517 148.528,177.184 148,178.5C 146.275,179.464 144.441,180.131 142.5,180.5C 140.365,180.147 139.032,180.98 138.5,183C 139.804,195.486 139.804,207.986 138.5,220.5C 139.102,224.012 139.769,227.512 140.5,231C 140.167,231.833 139.833,232.667 139.5,233.5C 138.833,232.5 138.167,231.5 137.5,230.5C 136.904,231.716 136.737,233.049 137,234.5C 136.586,234.043 136.086,233.709 135.5,233.5C 134.667,234.5 133.833,235.5 133,236.5C 130.998,230.489 128.998,224.489 127,218.5C 126.667,220.167 126.333,221.833 126,223.5C 124.756,220.34 123.922,217.007 123.5,213.5C 123.824,211.431 124.658,211.098 126,212.5C 126.201,209.485 125.868,206.485 125,203.5C 124.617,202.944 124.117,202.611 123.5,202.5C 124.038,200.883 124.371,199.216 124.5,197.5C 122.182,197.343 120.516,196.176 119.5,194C 120.01,192.174 120.844,192.007 122,193.5C 122.497,190.854 122.664,188.187 122.5,185.5C 119.733,185.858 117.067,186.525 114.5,187.5C 109.113,188.62 103.78,189.953 98.5,191.5C 102.734,191.818 107.067,191.818 111.5,191.5C 112.978,191.238 114.311,191.571 115.5,192.5C 111.096,193.683 106.763,195.016 102.5,196.5C 99.1461,197.261 96.3128,198.928 94,201.5C 92.754,208.084 90.254,214.084 86.5,219.5C 83.8438,220.614 81.1771,220.614 78.5,219.5C 78.6265,217.085 78.7932,214.751 79,212.5C 76.9539,214.7 75.9539,217.367 76,220.5C 74.9939,216.462 73.8272,212.462 72.5,208.5C 78.4601,194.252 84.1268,179.919 89.5,165.5C 90.5,165.5 91.5,165.5 92.5,165.5C 91.4376,166.575 91.4376,167.575 92.5,168.5C 93.2621,167.372 93.9288,166.205 94.5,165C 93.9056,164.536 93.2389,164.369 92.5,164.5C 92.1598,159.447 93.3264,154.78 96,150.5C 97.1353,150.273 98.302,149.94 99.5,149.5C 98.91,148.201 97.91,147.368 96.5,147C 98.26,142.555 99.9267,138.055 101.5,133.5C 103.347,132.17 104.847,132.503 106,134.5C 107.113,133.695 108.279,133.028 109.5,132.5C 111.734,131.553 114.068,130.886 116.5,130.5C 119.865,132.567 123.532,133.9 127.5,134.5C 129.688,142.915 131.688,151.248 133.5,159.5 Z"/></g>
<g><path style="opacity:1" fill="#f8faf9" d="M 411.5,130.5 C 413.888,133.076 416.888,134.076 420.5,133.5C 420.232,135.099 420.566,136.432 421.5,137.5C 422.213,141.687 423.213,145.687 424.5,149.5C 424.676,152.727 425.343,155.727 426.5,158.5C 427.059,162.853 427.725,167.186 428.5,171.5C 429.833,171.5 431.167,171.5 432.5,171.5C 433.552,171.351 434.552,171.517 435.5,172C 432.584,172.049 431.584,173.216 432.5,175.5C 433.689,176.429 435.022,176.762 436.5,176.5C 438.288,176.215 439.955,176.548 441.5,177.5C 439.176,179.394 436.509,180.727 433.5,181.5C 431.448,182.053 431.115,183.053 432.5,184.5C 432.177,190.69 432.51,196.69 433.5,202.5C 432.206,206.934 432.206,211.267 433.5,215.5C 433.374,217.2 432.707,218.7 431.5,220C 433.21,224.447 433.543,228.947 432.5,233.5C 431.833,232.5 431.167,231.5 430.5,230.5C 429.904,231.716 429.737,233.049 430,234.5C 429.586,234.043 429.086,233.709 428.5,233.5C 427.667,234.5 426.833,235.5 426,236.5C 425.722,235.584 425.222,234.918 424.5,234.5C 424.59,231.848 423.924,229.515 422.5,227.5C 422.382,224.312 421.549,221.312 420,218.5C 419.667,220.167 419.333,221.833 419,223.5C 417.812,222.437 417.312,221.103 417.5,219.5C 417.277,217.658 416.943,215.825 416.5,214C 417.377,212.381 418.377,211.215 419.5,210.5C 419,208.5 418.5,206.5 418,204.5C 417.066,205.858 416.232,207.192 415.5,208.5C 414.262,206.786 413.595,204.786 413.5,202.5C 416.47,202.254 417.803,200.588 417.5,197.5C 415.876,197.64 414.71,196.973 414,195.5C 414.705,194.084 415.205,192.084 415.5,189.5C 415.333,188.167 415.167,186.833 415,185.5C 414.617,186.056 414.117,186.389 413.5,186.5C 411.097,186.448 408.764,186.781 406.5,187.5C 403.421,188.304 400.421,189.304 397.5,190.5C 395.741,190.046 393.741,190.046 391.5,190.5C 391.281,191.675 391.614,192.675 392.5,193.5C 394.195,192.826 395.862,192.159 397.5,191.5C 400.266,192.232 402.932,192.232 405.5,191.5C 406.675,191.281 407.675,191.614 408.5,192.5C 406.861,193.322 405.195,193.989 403.5,194.5C 400.402,194.756 397.402,195.422 394.5,196.5C 391.599,197.536 389.099,199.203 387,201.5C 385.754,208.084 383.254,214.084 379.5,219.5C 377.172,220.724 374.839,220.724 372.5,219.5C 372.171,216.992 372.171,214.659 372.5,212.5C 371.522,212.977 370.689,213.643 370,214.5C 369.667,216.5 369.333,218.5 369,220.5C 367.994,216.462 366.827,212.462 365.5,208.5C 371.226,194.048 377.226,179.715 383.5,165.5C 384.167,166.5 384.833,167.5 385.5,168.5C 385.833,167.833 386.167,167.167 386.5,166.5C 384.861,160.789 385.694,155.456 389,150.5C 390.135,150.273 391.302,149.94 392.5,149.5C 391.91,148.201 390.91,147.368 389.5,147C 391.192,142.926 392.692,138.76 394,134.5C 395.667,131.833 397.333,131.833 399,134.5C 399.995,133.934 400.828,133.267 401.5,132.5C 404.698,131.213 408.031,130.547 411.5,130.5 Z"/></g>
<g><path style="opacity:1" fill="#f8fbf8" d="M 200.5,134.5 C 203.939,134.747 207.272,134.414 210.5,133.5C 211.718,134.161 213.051,134.828 214.5,135.5C 213.583,141.207 212.25,146.541 210.5,151.5C 202.5,152.333 194.5,153.167 186.5,154C 175.835,155.161 171.502,160.995 173.5,171.5C 182.188,170.735 190.854,170.735 199.5,171.5C 197.922,172.298 196.256,172.798 194.5,173C 199.378,173.462 200.712,175.962 198.5,180.5C 187.915,181.818 187.915,182.485 198.5,182.5C 198.719,183.675 198.386,184.675 197.5,185.5C 193.386,186.853 189.386,188.186 185.5,189.5C 182.135,190.04 178.802,190.706 175.5,191.5C 174.167,191.5 172.833,191.5 171.5,191.5C 171.5,192.5 171.5,193.5 171.5,194.5C 170.702,197.171 170.035,200.004 169.5,203C 169.717,205.516 170.05,208.016 170.5,210.5C 170.704,217.386 168.537,223.719 164,229.5C 160.943,230.451 157.777,230.784 154.5,230.5C 154.451,227.626 154.784,224.792 155.5,222C 155.231,220.393 154.397,219.226 153,218.5C 153.737,206.853 154.57,195.186 155.5,183.5C 156.732,178.19 158.398,173.19 160.5,168.5C 161.479,165.375 161.813,162.042 161.5,158.5C 156.537,158.898 155.537,157.231 158.5,153.5C 157.675,152.614 156.675,152.281 155.5,152.5C 155.5,150.833 155.5,149.167 155.5,147.5C 154.908,144.369 155.908,142.036 158.5,140.5C 161.797,140.368 163.463,138.702 163.5,135.5C 167.229,134.01 170.729,134.343 174,136.5C 174.278,135.584 174.778,134.918 175.5,134.5C 175.833,134.5 176.167,134.5 176.5,134.5C 175.15,135.65 175.316,136.317 177,136.5C 181.995,134.292 187.161,133.125 192.5,133C 191.5,133.333 190.5,133.667 189.5,134C 193.152,134.499 196.818,134.665 200.5,134.5 Z"/></g>
<g><path style="opacity:1" fill="#f9fbf9" d="M 262.5,180.5 C 260.147,181.34 258.147,182.674 256.5,184.5C 254.966,183.797 253.299,183.964 251.5,185C 250.941,185.725 250.608,186.558 250.5,187.5C 253.143,191.475 256.143,195.142 259.5,198.5C 260.075,200.411 261.075,202.078 262.5,203.5C 267.453,210.785 273.119,217.452 279.5,223.5C 278.603,223.669 277.603,224.002 276.5,224.5C 278.555,226.555 280.221,228.888 281.5,231.5C 279.172,232.824 276.839,234.157 274.5,235.5C 265.924,230.482 258.091,223.815 251,215.5C 244.572,206.977 238.905,197.977 234,188.5C 232.118,189.093 231.118,190.427 231,192.5C 230.667,198.833 230.333,205.167 230,211.5C 229.15,213.01 228.317,214.51 227.5,216C 228.148,217.44 228.481,218.94 228.5,220.5C 225.167,220.973 223,219.64 222,216.5C 220.359,220.1 218.193,220.434 215.5,217.5C 213.748,213.773 213.081,209.773 213.5,205.5C 214.294,198.525 215.627,191.525 217.5,184.5C 218.219,182.236 218.552,179.903 218.5,177.5C 219.621,175.046 220.454,172.379 221,169.5C 221.219,170.938 221.719,172.271 222.5,173.5C 224.608,166.346 226.608,159.179 228.5,152C 227.4,151.568 226.733,152.068 226.5,153.5C 225.958,156.672 224.958,159.672 223.5,162.5C 222.507,159.762 222.841,157.095 224.5,154.5C 216.767,153.088 216.767,151.255 224.5,149C 221.696,148.54 219.029,149.04 216.5,150.5C 215.304,150.154 215.304,149.654 216.5,149C 217.5,148.667 218.5,148.333 219.5,148C 217.697,147.363 216.364,146.197 215.5,144.5C 230.199,132.909 245.865,131.409 262.5,140C 269.085,145.357 271.251,152.191 269,160.5C 265.833,165 262.667,169.5 259.5,174C 260.167,174.667 260.833,174.667 261.5,174C 264.333,171.167 267.167,168.333 270,165.5C 270.167,166 270.333,166.5 270.5,167C 268.698,172.117 266.032,176.617 262.5,180.5 Z"/></g>
<g><path style="opacity:1" fill="#f9fbf8" d="M 292.5,135.5 C 294.924,135.192 297.257,135.526 299.5,136.5C 300.655,137.95 302.155,138.95 304,139.5C 304.781,140.729 305.281,142.062 305.5,143.5C 297.977,167.635 294.477,192.302 295,217.5C 292.429,219.976 290.929,222.976 290.5,226.5C 282.279,227.396 279.112,223.73 281,215.5C 279.141,214.355 278.307,212.688 278.5,210.5C 279.898,199.546 280.731,188.546 281,177.5C 283.603,175.051 284.103,172.218 282.5,169C 283.448,168.517 284.448,168.351 285.5,168.5C 286.117,172.422 286.784,172.422 287.5,168.5C 287.167,167.5 286.833,166.5 286.5,165.5C 284.895,166.587 284.229,165.921 284.5,163.5C 285.221,158.394 286.388,153.394 288,148.5C 288.793,144.577 288.626,140.744 287.5,137C 289.382,136.802 291.048,136.302 292.5,135.5 Z"/></g>
<g><path style="opacity:1" fill="#6a7dee" d="M 196.5,136.5 C 200.514,136.334 204.514,136.501 208.5,137C 204.203,138.092 199.869,138.425 195.5,138C 196.056,137.617 196.389,137.117 196.5,136.5 Z"/></g>
<g><path style="opacity:1" fill="#f9fbf8" d="M 332.5,142.5 C 334.196,142.315 335.529,141.481 336.5,140C 333.833,139.333 333.833,138.667 336.5,138C 349.971,134.695 360.638,138.695 368.5,150C 367.3,151.031 365.966,151.865 364.5,152.5C 359.325,150.045 353.992,149.878 348.5,152C 325.77,162.294 317.77,179.461 324.5,203.5C 331.409,203.689 337.743,201.856 343.5,198C 348.634,193.867 353.468,189.367 358,184.5C 353.021,194.787 344.854,201.62 333.5,205C 337.814,205.455 341.814,204.455 345.5,202C 350.983,197.351 356.316,192.518 361.5,187.5C 362.478,187.977 363.311,188.643 364,189.5C 364.667,191.833 364.667,194.167 364,196.5C 358.59,202.415 352.757,207.748 346.5,212.5C 346.667,212.833 346.833,213.167 347,213.5C 354.314,209.618 361.147,205.451 367.5,201C 359.625,211.105 349.291,216.772 336.5,218C 342.175,218.464 342.508,219.131 337.5,220C 328.923,220.28 322.256,216.78 317.5,209.5C 317.167,209.667 316.833,209.833 316.5,210C 318.694,212.695 320.694,215.528 322.5,218.5C 321.277,219.614 319.944,219.781 318.5,219C 309.479,212.163 305.646,202.996 307,191.5C 305.272,179.807 307.272,168.807 313,158.5C 319.958,153.708 326.458,148.374 332.5,142.5 Z"/></g>
<g><path style="opacity:1" fill="#e2eddd" d="M 332.5,142.5 C 330.506,143.35 328.506,143.85 326.5,144C 328.334,141.871 330.334,141.371 332.5,142.5 Z"/></g>
<g><path style="opacity:1" fill="#4d9030" d="M 198.5,145.5 C 200.939,146.053 203.273,146.053 205.5,145.5C 208.028,146.498 208.028,147.331 205.5,148C 199.179,148.933 192.846,149.266 186.5,149C 190.593,147.758 194.593,146.591 198.5,145.5 Z"/></g>
<g><path style="opacity:1" fill="#318010" d="M 244.5,146.5 C 248.319,146.605 251.986,147.438 255.5,149C 257.846,150.013 259.513,151.679 260.5,154C 259.33,156.668 257.663,159.002 255.5,161C 249.561,165.429 243.228,169.263 236.5,172.5C 236.167,172 235.833,171.5 235.5,171C 237.336,163.493 239.17,155.993 241,148.5C 242.302,147.915 243.469,147.249 244.5,146.5 Z"/></g>
<g><path style="opacity:1" fill="#59983d" d="M 257.5,146.5 C 259.757,147.562 260.923,149.228 261,151.5C 259.198,150.211 258.031,148.544 257.5,146.5 Z"/></g>
<g><path style="opacity:1" fill="#317f13" d="M 155.5,147.5 C 155.5,149.167 155.5,150.833 155.5,152.5C 156.675,152.281 157.675,152.614 158.5,153.5C 155.537,157.231 156.537,158.898 161.5,158.5C 161.813,162.042 161.479,165.375 160.5,168.5C 154.891,169.635 150.224,172.301 146.5,176.5C 142.966,176.968 139.966,175.968 137.5,173.5C 139.078,172.702 140.744,172.202 142.5,172C 140.19,171.503 137.857,171.337 135.5,171.5C 134.833,167.5 134.167,163.5 133.5,159.5C 134.841,156.159 137.175,153.825 140.5,152.5C 143.778,153.943 146.945,155.609 150,157.5C 152.118,154.301 153.952,150.967 155.5,147.5 Z"/></g>
<g><path style="opacity:1" fill="#609c44" d="M 262.5,152.5 C 263.649,152.791 264.316,153.624 264.5,155C 264.167,155.833 263.833,156.667 263.5,157.5C 262.548,155.955 262.215,154.288 262.5,152.5 Z"/></g>
<g><path style="opacity:1" fill="#415cec" d="M 111.5,155.5 C 113.776,155.756 114.943,157.09 115,159.5C 116.484,163.754 117.151,168.087 117,172.5C 116.5,174.333 115.333,175.5 113.5,176C 110.568,176.953 107.568,177.453 104.5,177.5C 106.833,170.167 109.167,162.833 111.5,155.5 Z"/></g>
<g><path style="opacity:1" fill="#38831c" d="M 408.5,166.5 C 407.167,169.833 405.833,173.167 404.5,176.5C 402.283,177.369 399.95,177.702 397.5,177.5C 399.644,169.566 402.478,161.899 406,154.5C 407.989,158.253 408.822,162.253 408.5,166.5 Z"/></g>
<g><path style="opacity:1" fill="#5b993f" d="M 259.5,159.5 C 260.376,159.369 261.043,159.702 261.5,160.5C 257.389,165.929 256.722,165.596 259.5,159.5 Z"/></g>
<g><path style="opacity:1" fill="#8490f2" d="M 102.5,161.5 C 103.376,161.369 104.043,161.702 104.5,162.5C 103.5,165.167 102.5,167.833 101.5,170.5C 99.1167,171.462 98.1167,170.462 98.5,167.5C 99.5,167.5 100.5,167.5 101.5,167.5C 101.517,165.435 101.85,163.435 102.5,161.5 Z"/></g>
<g><path style="opacity:1" fill="#74a85c" d="M 395.5,161.5 C 396.376,161.369 397.043,161.702 397.5,162.5C 396.195,165.053 395.195,167.72 394.5,170.5C 392.117,171.462 391.117,170.462 391.5,167.5C 392.5,167.5 393.5,167.5 394.5,167.5C 394.517,165.435 394.85,163.435 395.5,161.5 Z"/></g>
<g><path style="opacity:1" fill="#4d66e8" d="M 92.5,164.5 C 93.2389,164.369 93.9056,164.536 94.5,165C 93.9288,166.205 93.2621,167.372 92.5,168.5C 91.4376,167.575 91.4376,166.575 92.5,165.5C 92.5,165.167 92.5,164.833 92.5,164.5 Z"/></g>
<g><path style="opacity:1" fill="#5b78f9" d="M 408.5,166.5 C 411.034,169.142 411.034,171.976 408.5,175C 407.255,175.791 405.922,176.291 404.5,176.5C 405.833,173.167 407.167,169.833 408.5,166.5 Z"/></g>
<g><path style="opacity:1" fill="#3b59e3" d="M 160.5,168.5 C 158.398,173.19 156.732,178.19 155.5,183.5C 150.965,182.863 146.632,181.863 142.5,180.5C 144.441,180.131 146.275,179.464 148,178.5C 148.528,177.184 148.028,176.517 146.5,176.5C 150.224,172.301 154.891,169.635 160.5,168.5 Z"/></g>
<g><path style="opacity:1" fill="#3656e5" d="M 218.5,177.5 C 218.552,179.903 218.219,182.236 217.5,184.5C 215.634,185.014 213.8,185.68 212,186.5C 210.167,186 209,184.833 208.5,183C 210.451,179.02 213.451,176.686 217.5,176C 218.056,176.383 218.389,176.883 218.5,177.5 Z"/></g>
<g><path style="opacity:1" fill="#556fe2" d="M 88.5,176.5 C 89.4646,177.721 89.298,179.054 88,180.5C 87.4209,179.072 87.5876,177.738 88.5,176.5 Z"/></g>
<g><path style="opacity:1" fill="#607aff" d="M 405.5,177.5 C 411.824,177.447 411.991,178.114 406,179.5C 405.167,179.333 404.333,179.167 403.5,179C 404.416,178.722 405.082,178.222 405.5,177.5 Z"/></g>
<g><path style="opacity:1" fill="#6678ef" d="M 113.5,177.5 C 114.873,177.343 116.207,177.51 117.5,178C 114.018,180.249 110.351,180.749 106.5,179.5C 108.969,178.832 111.302,178.165 113.5,177.5 Z"/></g>
<g><path style="opacity:1" fill="#3858e0" d="M 262.5,180.5 C 263.928,187.377 265.594,194.21 267.5,201C 266.615,203.157 264.948,203.99 262.5,203.5C 261.075,202.078 260.075,200.411 259.5,198.5C 261.385,196.205 261.885,193.538 261,190.5C 259.248,188.649 257.748,186.649 256.5,184.5C 258.147,182.674 260.147,181.34 262.5,180.5 Z"/></g>
<g><path style="opacity:1" fill="#348217" d="M 433.5,181.5 C 433.443,182.609 433.11,183.609 432.5,184.5C 431.115,183.053 431.448,182.053 433.5,181.5 Z"/></g>
<g><path style="opacity:1" fill="#317e19" d="M 256.5,184.5 C 257.748,186.649 259.248,188.649 261,190.5C 261.885,193.538 261.385,196.205 259.5,198.5C 256.143,195.142 253.143,191.475 250.5,187.5C 250.608,186.558 250.941,185.725 251.5,185C 253.299,183.964 254.966,183.797 256.5,184.5 Z"/></g>
<g><path style="opacity:1" fill="#6a80fd" d="M 406.5,187.5 C 406.167,188.833 405.833,190.167 405.5,191.5C 402.932,192.232 400.266,192.232 397.5,191.5C 397.5,191.167 397.5,190.833 397.5,190.5C 400.421,189.304 403.421,188.304 406.5,187.5 Z"/></g>
<g><path style="opacity:1" fill="#3555e7" d="M 185.5,189.5 C 184.66,198.53 187.827,200.53 195,195.5C 195.494,193.866 195.66,192.199 195.5,190.5C 196.5,190.5 197.5,190.5 198.5,190.5C 198.453,200.453 203.453,205.453 213.5,205.5C 213.081,209.773 213.748,213.773 215.5,217.5C 213.84,219.248 211.84,219.748 209.5,219C 199.934,215.631 190.434,212.131 181,208.5C 180.167,208.667 179.333,208.833 178.5,209C 177.687,210.803 176.52,212.303 175,213.5C 173.357,212.685 171.857,211.685 170.5,210.5C 170.05,208.016 169.717,205.516 169.5,203C 170.035,200.004 170.702,197.171 171.5,194.5C 173.23,193.974 174.564,192.974 175.5,191.5C 178.802,190.706 182.135,190.04 185.5,189.5 Z"/></g>
<g><path style="opacity:1" fill="#4f66ea" d="M 114.5,187.5 C 113.5,188.833 112.5,190.167 111.5,191.5C 107.067,191.818 102.734,191.818 98.5,191.5C 103.78,189.953 109.113,188.62 114.5,187.5 Z"/></g>
<g><path style="opacity:1" fill="#4f8f3c" d="M 175.5,191.5 C 174.564,192.974 173.23,193.974 171.5,194.5C 171.5,193.5 171.5,192.5 171.5,191.5C 172.833,191.5 174.167,191.5 175.5,191.5 Z"/></g>
<g><path style="opacity:1" fill="#5c9942" d="M 397.5,190.5 C 397.5,190.833 397.5,191.167 397.5,191.5C 395.862,192.159 394.195,192.826 392.5,193.5C 391.614,192.675 391.281,191.675 391.5,190.5C 393.741,190.046 395.741,190.046 397.5,190.5 Z"/></g>
<g><path style="opacity:1" fill="#39b3f9" d="M 415.5,208.5 C 394.012,256.145 372.512,303.812 351,351.5C 350.439,352.022 349.772,352.355 349,352.5C 345.773,351.136 342.606,349.636 339.5,348C 364.324,294.189 388.99,240.356 413.5,186.5C 414.117,186.389 414.617,186.056 415,185.5C 415.167,186.833 415.333,188.167 415.5,189.5C 415.205,192.084 414.705,194.084 414,195.5C 414.71,196.973 415.876,197.64 417.5,197.5C 417.803,200.588 416.47,202.254 413.5,202.5C 413.595,204.786 414.262,206.786 415.5,208.5 Z"/></g>
<g><path style="opacity:1" fill="#5170f8" d="M 403.5,194.5 C 381.376,245.409 358.209,295.743 334,345.5C 332.441,344.971 330.941,344.304 329.5,343.5C 328.417,342.635 328.251,341.635 329,340.5C 351.119,292.597 372.953,244.597 394.5,196.5C 397.402,195.422 400.402,194.756 403.5,194.5 Z"/></g>
<g><path style="opacity:1" fill="#3454e9" d="M 102.5,196.5 C 97.3834,203.316 93.8834,210.983 92,219.5C 85.6909,234.706 86.0242,249.706 93,264.5C 97.0261,267.698 100.859,271.032 104.5,274.5C 97.2917,304.755 108.625,324.088 138.5,332.5C 139.833,332.333 141.167,332.167 142.5,332C 143.056,331.617 143.389,331.117 143.5,330.5C 144.886,333.215 145.553,336.215 145.5,339.5C 143.866,344.708 143.366,350.041 144,355.5C 152.496,367.156 160.496,379.156 168,391.5C 177.2,401.082 188.367,404.248 201.5,401C 202.833,400.333 204.167,399.667 205.5,399C 208.946,395.554 212.446,392.054 216,388.5C 216.434,384.452 216.434,380.452 216,376.5C 220.071,374.414 224.238,372.414 228.5,370.5C 231.394,367.03 232.227,363.03 231,358.5C 229.897,353.628 228.23,348.962 226,344.5C 225.333,342.5 225.333,340.5 226,338.5C 236.331,324.008 246.831,309.675 257.5,295.5C 262.689,292.983 266.022,288.983 267.5,283.5C 264.835,284.913 262.001,286.246 259,287.5C 258.133,284.479 258.633,281.812 260.5,279.5C 264.043,277.562 267.71,275.895 271.5,274.5C 271.82,288.028 278.154,292.528 290.5,288C 299.548,279.525 303.048,269.025 301,256.5C 298.839,249.832 294.339,247.166 287.5,248.5C 286.064,247.571 284.731,246.405 283.5,245C 289.825,244.5 296.158,244.334 302.5,244.5C 301.532,247.445 301.366,250.445 302,253.5C 302.71,254.973 303.876,255.64 305.5,255.5C 305.015,250.841 306.848,249.508 311,251.5C 311.667,252.833 312.333,254.167 313,255.5C 314.096,264.67 314.929,273.837 315.5,283C 316.5,283.667 317.5,283.667 318.5,283C 323.074,277.935 327.407,272.769 331.5,267.5C 332.167,268.833 332.833,270.167 333.5,271.5C 333.338,273.527 333.505,275.527 334,277.5C 334.816,278.823 335.983,279.489 337.5,279.5C 339.956,284.246 342.289,289.079 344.5,294C 337,310.5 329.5,327 322,343.5C 319.734,364.989 317.568,386.489 315.5,408C 315.58,409.894 315.913,411.727 316.5,413.5C 244.584,433.798 181.751,418.131 128,366.5C 89.8661,324.933 73.3661,275.933 78.5,219.5C 81.1771,220.614 83.8438,220.614 86.5,219.5C 90.254,214.084 92.754,208.084 94,201.5C 96.3128,198.928 99.1461,197.261 102.5,196.5 Z"/></g>
<g><path style="opacity:1" fill="#5b993f" d="M 309.5,199.5 C 310.725,200.152 311.392,201.319 311.5,203C 311.333,204.167 311.167,205.333 311,206.5C 310.023,204.26 309.523,201.927 309.5,199.5 Z"/></g>
<g><path style="opacity:1" fill="#3354e8" d="M 424.5,234.5 C 425.222,234.918 425.722,235.584 426,236.5C 426.833,235.5 427.667,234.5 428.5,233.5C 429.086,233.709 429.586,234.043 430,234.5C 429.737,233.049 429.904,231.716 430.5,230.5C 431.167,231.5 431.833,232.5 432.5,233.5C 433.543,228.947 433.21,224.447 431.5,220C 432.707,218.7 433.374,217.2 433.5,215.5C 435.654,210.521 437.821,205.521 440,200.5C 454.541,285.603 425.708,351.436 353.5,398C 343.63,403.778 333.297,408.111 322.5,411C 337,395.167 351.5,379.333 366,363.5C 376.469,339.231 387.469,315.231 399,291.5C 404.134,297.635 409.634,303.469 415.5,309C 417.367,309.711 418.867,309.211 420,307.5C 415.805,295.574 411.971,283.407 408.5,271C 409.286,267.761 410.619,264.761 412.5,262C 414.258,262.344 416.091,262.844 418,263.5C 419.107,263.415 420.107,263.081 421,262.5C 421.303,257.116 420.803,251.782 419.5,246.5C 421.173,242.477 422.839,238.477 424.5,234.5 Z"/></g>
<g><path style="opacity:1" fill="#aacb9a" d="M 123.5,202.5 C 123.364,210.988 122.364,211.321 120.5,203.5C 121.325,202.614 122.325,202.281 123.5,202.5 Z"/></g>
<g><path style="opacity:1" fill="#4e9132" d="M 135.5,210.5 C 136.693,210.97 137.36,211.97 137.5,213.5C 137.333,214.5 137.167,215.5 137,216.5C 136.187,214.564 135.687,212.564 135.5,210.5 Z"/></g>
<g><path style="opacity:1" fill="#4f9233" d="M 284.5,216.5 C 286.972,217.749 287.139,219.415 285,221.5C 284.506,219.866 284.34,218.199 284.5,216.5 Z"/></g>
<g><path style="opacity:1" fill="#5170f7" d="M 422.5,227.5 C 402.336,270.612 382.336,313.945 362.5,357.5C 360.223,357.985 358.056,357.319 356,355.5C 356.361,352.076 357.361,348.742 359,345.5C 378.275,303.289 397.775,261.289 417.5,219.5C 417.312,221.103 417.812,222.437 419,223.5C 419.333,221.833 419.667,220.167 420,218.5C 421.549,221.312 422.382,224.312 422.5,227.5 Z"/></g>
<g><path style="opacity:1" fill="#3355e2" d="M 257.5,231.5 C 264.472,234.141 269.472,238.808 272.5,245.5C 264.331,244.334 259.331,239.667 257.5,231.5 Z"/></g>
<g><path style="opacity:1" fill="#f7faf6" d="M 145.5,235.5 C 147.833,235.5 150.167,235.5 152.5,235.5C 150.781,255.795 149.781,276.128 149.5,296.5C 152.32,296.752 154.986,296.252 157.5,295C 161.554,291.665 163.721,287.498 164,282.5C 162.644,281.62 161.144,281.286 159.5,281.5C 160.248,274.788 163.748,272.788 170,275.5C 171.373,277.695 171.706,280.029 171,282.5C 168.482,287.536 165.982,292.536 163.5,297.5C 170.415,312.581 180.748,324.747 194.5,334C 196.833,334.667 199.167,334.667 201.5,334C 207.234,327.478 209.401,328.645 208,337.5C 204.51,341.047 200.343,342.214 195.5,341C 185.608,337.967 177.774,332.133 172,323.5C 167.085,316.672 162.419,309.672 158,302.5C 153.634,300.52 150.634,301.853 149,306.5C 148.769,310.584 148.102,314.584 147,318.5C 145.333,319.833 143.667,319.833 142,318.5C 142.519,295.984 143.686,273.484 145.5,251C 145.647,246.999 144.98,243.166 143.5,239.5C 143.752,237.927 144.418,236.594 145.5,235.5 Z"/></g>
<g><path style="opacity:1" fill="#f5f7f8" d="M 337.5,279.5 C 335.983,279.489 334.816,278.823 334,277.5C 333.505,275.527 333.338,273.527 333.5,271.5C 334.797,269.307 334.797,266.973 333.5,264.5C 332.575,265.357 331.908,266.357 331.5,267.5C 327.407,272.769 323.074,277.935 318.5,283C 317.5,283.667 316.5,283.667 315.5,283C 314.929,273.837 314.096,264.67 313,255.5C 312.333,254.167 311.667,252.833 311,251.5C 306.848,249.508 305.015,250.841 305.5,255.5C 303.876,255.64 302.71,254.973 302,253.5C 301.366,250.445 301.532,247.445 302.5,244.5C 309.434,241.121 314.434,243.121 317.5,250.5C 318.174,256.557 319.174,262.557 320.5,268.5C 324.562,269.17 327.562,267.503 329.5,263.5C 333.625,258.805 334.458,253.471 332,247.5C 329.668,244.209 326.835,243.709 323.5,246C 322.672,247.992 321.339,249.492 319.5,250.5C 320.28,242.56 324.613,239.394 332.5,241C 334.617,242.731 336.117,244.898 337,247.5C 337.248,252.563 337.915,257.563 339,262.5C 340.436,268.221 343.103,268.888 347,264.5C 350.062,259.915 351.396,254.915 351,249.5C 347.283,245.661 343.45,245.661 339.5,249.5C 339.167,249.167 338.833,248.833 338.5,248.5C 341.655,243.817 345.988,241.651 351.5,242C 353.917,244.479 354.917,247.479 354.5,251C 353.538,263.44 347.872,272.94 337.5,279.5 Z"/></g>
<g><path style="opacity:1" fill="#f5f9f3" d="M 176.5,241.5 C 197.621,243.144 211.121,254.144 217,274.5C 219.678,295.141 212.178,310.808 194.5,321.5C 192.899,320.965 192.399,319.965 193,318.5C 210.384,304.687 215.384,287.353 208,266.5C 200.797,255.141 190.631,247.808 177.5,244.5C 176.614,243.675 176.281,242.675 176.5,241.5 Z"/></g>
<g><path style="opacity:1" fill="#338117" d="M 329.5,263.5 C 326.933,258.596 323.599,254.263 319.5,250.5C 321.339,249.492 322.672,247.992 323.5,246C 326.835,243.709 329.668,244.209 332,247.5C 334.458,253.471 333.625,258.805 329.5,263.5 Z"/></g>
<g><path style="opacity:1" fill="#f7f8fb" d="M 287.5,248.5 C 294.339,247.166 298.839,249.832 301,256.5C 303.048,269.025 299.548,279.525 290.5,288C 278.154,292.528 271.82,288.028 271.5,274.5C 270.917,265.835 273.584,258.335 279.5,252C 281.818,250.007 284.484,248.841 287.5,248.5 Z"/></g>
<g><path style="opacity:1" fill="#3f5ae8" d="M 317.5,250.5 C 318.167,250.5 318.833,250.5 319.5,250.5C 323.599,254.263 326.933,258.596 329.5,263.5C 327.562,267.503 324.562,269.17 320.5,268.5C 319.174,262.557 318.174,256.557 317.5,250.5 Z"/></g>
<g><path style="opacity:1" fill="#f4f6fb" d="M 109.5,278.5 C 105.274,294.99 109.607,308.823 122.5,320C 129.013,324.555 136.013,328.055 143.5,330.5C 143.389,331.117 143.056,331.617 142.5,332C 141.167,332.167 139.833,332.333 138.5,332.5C 108.625,324.088 97.2917,304.755 104.5,274.5C 108.38,266.275 114.046,259.442 121.5,254C 123.025,252.991 124.692,252.491 126.5,252.5C 126.649,253.552 126.483,254.552 126,255.5C 118.517,261.82 113.017,269.487 109.5,278.5 Z"/></g>
<g><path style="opacity:1" fill="#2b7b10" d="M 434.5,252.5 C 437.864,251.873 439.864,253.206 440.5,256.5C 439.814,265.507 438.981,274.507 438,283.5C 436.194,288.473 432.694,291.473 427.5,292.5C 425.234,292.069 423.734,290.736 423,288.5C 422.333,285.167 422.333,281.833 423,278.5C 426.559,269.714 430.393,261.048 434.5,252.5 Z"/></g>
<g><path style="opacity:1" fill="#338019" d="M 290.5,256.5 C 287.909,262.092 283.909,266.426 278.5,269.5C 278.663,261.134 282.663,255.8 290.5,253.5C 290.5,254.5 290.5,255.5 290.5,256.5 Z"/></g>
<g><path style="opacity:1" fill="#f4f7f4" d="M 260.5,279.5 C 258.633,281.812 258.133,284.479 259,287.5C 262.001,286.246 264.835,284.913 267.5,283.5C 266.022,288.983 262.689,292.983 257.5,295.5C 252.677,295.673 250.677,293.339 251.5,288.5C 251.5,287.167 251.5,285.833 251.5,284.5C 253.704,278.856 255.371,273.023 256.5,267C 256.507,265.188 255.84,263.688 254.5,262.5C 250.451,265.584 247.618,269.584 246,274.5C 242.653,283.01 239.486,291.51 236.5,300C 234.299,300.825 232.466,300.325 231,298.5C 230.311,292.725 230.811,287.058 232.5,281.5C 233.473,279.052 233.806,276.385 233.5,273.5C 233.5,271.5 233.5,269.5 233.5,267.5C 232.209,267.263 231.209,267.596 230.5,268.5C 229.094,268.973 228.427,269.973 228.5,271.5C 227.5,271.5 226.5,271.5 225.5,271.5C 225.935,269.297 225.935,267.297 225.5,265.5C 226.492,265.672 227.158,265.338 227.5,264.5C 229.34,262.832 231.34,261.332 233.5,260C 235.112,259.28 236.612,259.446 238,260.5C 238.499,265.823 238.666,271.156 238.5,276.5C 239.675,276.719 240.675,276.386 241.5,275.5C 244.079,270.008 246.912,264.675 250,259.5C 256.517,252.004 260.684,253.004 262.5,262.5C 261.739,267.379 260.739,272.212 259.5,277C 259.528,278.07 259.861,278.903 260.5,279.5 Z"/></g>
<g><path style="opacity:1" fill="#3957ea" d="M 278.5,269.5 C 283.909,266.426 287.909,262.092 290.5,256.5C 291.441,253.875 292.607,253.875 294,256.5C 296.594,264.628 295.594,272.294 291,279.5C 286.412,284.68 282.079,284.68 278,279.5C 277.253,276.076 277.42,272.743 278.5,269.5 Z"/></g>
<g><path style="opacity:1" fill="#3659d2" d="M 227.5,264.5 C 227.158,265.338 226.492,265.672 225.5,265.5C 217.399,246.033 218.066,245.7 227.5,264.5 Z"/></g>
<g><path style="opacity:1" fill="#3d8525" d="M 333.5,271.5 C 332.833,270.167 332.167,268.833 331.5,267.5C 331.908,266.357 332.575,265.357 333.5,264.5C 334.797,266.973 334.797,269.307 333.5,271.5 Z"/></g>
<g><path style="opacity:1" fill="#317d1b" d="M 233.5,273.5 C 232.11,272.101 231.11,270.434 230.5,268.5C 231.209,267.596 232.209,267.263 233.5,267.5C 233.5,269.5 233.5,271.5 233.5,273.5 Z"/></g>
<g><path style="opacity:1" fill="#375acb" d="M 358.5,260.5 C 359.043,260.56 359.376,260.893 359.5,261.5C 357.651,265.198 355.818,268.864 354,272.5C 353.622,267.802 355.122,263.802 358.5,260.5 Z"/></g>
<g><path style="opacity:1" fill="#3e5cde" d="M 230.5,268.5 C 231.11,270.434 232.11,272.101 233.5,273.5C 233.806,276.385 233.473,279.052 232.5,281.5C 231.169,278.171 229.836,274.838 228.5,271.5C 228.427,269.973 229.094,268.973 230.5,268.5 Z"/></g>
<g><path style="opacity:1" fill="#3756e9" d="M 109.5,278.5 C 116.426,284.927 124.259,289.927 133,293.5C 132.003,298.874 132.336,304.208 134,309.5C 137.184,316.532 140.351,323.532 143.5,330.5C 136.013,328.055 129.013,324.555 122.5,320C 109.607,308.823 105.274,294.99 109.5,278.5 Z"/></g>
<g><path style="opacity:1" fill="#3456df" d="M 251.5,284.5 C 251.5,285.833 251.5,287.167 251.5,288.5C 238.643,289.963 238.643,288.63 251.5,284.5 Z"/></g>
<g><path style="opacity:1" fill="#ebedfd" d="M 300.5,299.5 C 302.857,299.337 305.19,299.503 307.5,300C 306.643,300.689 305.977,301.522 305.5,302.5C 307.169,306.51 308.836,310.51 310.5,314.5C 314.075,310.445 315.409,305.778 314.5,300.5C 316.5,299.167 318.5,299.167 320.5,300.5C 319.758,301.287 318.925,301.953 318,302.5C 315.52,308.949 312.853,315.282 310,321.5C 307.806,315.92 305.806,310.253 304,304.5C 302.86,302.721 301.693,301.054 300.5,299.5 Z"/></g>
<g><path style="opacity:1" fill="#edeffd" d="M 285.5,306.5 C 291.155,306.325 292.488,308.491 289.5,313C 287.527,313.495 285.527,313.662 283.5,313.5C 283.286,315.144 283.62,316.644 284.5,318C 286.655,318.116 288.655,317.783 290.5,317C 288.117,320.811 285.283,321.311 282,318.5C 280.745,313.738 281.912,309.738 285.5,306.5 Z"/></g>
<g><path style="opacity:1" fill="#405dec" d="M 286.5,308.5 C 289.041,309.623 289.041,310.956 286.5,312.5C 285.374,311.192 285.374,309.858 286.5,308.5 Z"/></g>
<g><path style="opacity:1" fill="#e4e7fc" d="M 293.5,316.5 C 294.833,316.5 296.167,316.5 297.5,316.5C 297.833,319.5 296.5,320.833 293.5,320.5C 293.5,319.167 293.5,317.833 293.5,316.5 Z"/></g>
<g><path style="opacity:1" fill="#e8ebfd" d="M 323.5,316.5 C 324.5,316.5 325.5,316.5 326.5,316.5C 326.833,319.5 325.5,320.833 322.5,320.5C 322.433,319.041 322.766,317.708 323.5,316.5 Z"/></g>
<g><path style="opacity:1" fill="#d4b842" d="M 326.5,348.5 C 337.375,352.936 348.042,357.936 358.5,363.5C 351.483,370.683 344.65,378.016 338,385.5C 333.38,383.69 329.046,381.357 325,378.5C 324.952,368.474 325.452,358.474 326.5,348.5 Z"/></g>
<g><path style="opacity:1" fill="#2b7b10" d="M 255.5,358.5 C 258.952,358.448 261.119,360.115 262,363.5C 262.667,366.167 262.667,368.833 262,371.5C 258.054,376.992 255.054,382.992 253,389.5C 245.02,394.763 239.52,392.93 236.5,384C 237.559,378.875 238.893,373.875 240.5,369C 245.956,366.026 250.956,362.526 255.5,358.5 Z"/></g>
</svg>
